HIERARCHY
ROOT Root
{
  OFFSET 0.0 0.0 0.0
  CHANNELS 6 Xposition Yposition Zposition Zrotation Yrotation Xrotation
  JOINT Hips
  {
    OFFSET 0.0 100.0 0.0
    CHANNELS 6 Xposition Yposition Zposition Zrotation Yrotation Xrotation
    JOINT Spine1
    {
      OFFSET 5.003913 -0.037094 -0.013727
      CHANNELS 3 Zrotation Yrotation Xrotation
      JOINT Spine2
      {
        OFFSET 7.125363 -1e-06 0.0
        CHANNELS 3 Zrotation Yrotation Xrotation
        JOINT Chest
        {
          OFFSET 7.594027 1e-06 0.0
          CHANNELS 3 Zrotation Yrotation Xrotation
          JOINT Neck1
          {
            OFFSET 26.313086 -0.460272 -0.181672
            CHANNELS 3 Zrotation Yrotation Xrotation
            JOINT Neck2
            {
              OFFSET 8.045911 0.0 0.0
              CHANNELS 3 Zrotation Yrotation Xrotation
              JOINT Head
              {
                OFFSET 6.432774 0.0 0.0
                CHANNELS 3 Zrotation Yrotation Xrotation
                JOINT HeadEnd
                {
                  OFFSET 16.169773 0.06451 0.00362
                  CHANNELS 3 Zrotation Yrotation Xrotation
                }
                JOINT Jaw
                {
                  OFFSET 0.108741 3.12938 0.002639
                  CHANNELS 3 Zrotation Yrotation Xrotation
                }
                JOINT LeftEye
                {
                  OFFSET 4.45173 8.166359 3.206392
                  CHANNELS 3 Zrotation Yrotation Xrotation
                }
                JOINT RightEye
                {
                  OFFSET 4.436895 8.135758 -3.222429
                  CHANNELS 3 Zrotation Yrotation Xrotation
                }
              }
            }
          }
          JOINT LeftShoulder
          {
            OFFSET 23.218927 5.195579 1.621656
            CHANNELS 3 Zrotation Yrotation Xrotation
            JOINT LeftArm
            {
              OFFSET 15.902118 2e-06 -2e-06
              CHANNELS 3 Zrotation Yrotation Xrotation
              JOINT LeftForeArm
              {
                OFFSET 28.739307 0.0 -1e-06
                CHANNELS 3 Zrotation Yrotation Xrotation
                JOINT LeftHand
                {
                  OFFSET 27.093981 -4e-06 0.0
                  CHANNELS 3 Zrotation Yrotation Xrotation
                  JOINT LeftHandThumb1
                  {
                    OFFSET 2.276781 3.380274 0.83384
                    CHANNELS 3 Zrotation Yrotation Xrotation
                    JOINT LeftHandThumb2
                    {
                      OFFSET 4.705309 -1e-06 -1e-06
                      CHANNELS 3 Zrotation Yrotation Xrotation
                      JOINT LeftHandThumb3
                      {
                        OFFSET 2.798515 0.0 3e-06
                        CHANNELS 3 Zrotation Yrotation Xrotation
                        JOINT LeftHandThumbEnd
                        {
                          OFFSET 3.180793 4e-06 -4e-06
                          CHANNELS 3 Zrotation Yrotation Xrotation
                        }
                      }
                    }
                  }
                  JOINT LeftHandIndex1
                  {
                    OFFSET 3.247786 2.352677 0.137192
                    CHANNELS 3 Zrotation Yrotation Xrotation
                    JOINT LeftHandIndex2
                    {
                      OFFSET 6.367095 1e-06 0.0
                      CHANNELS 3 Zrotation Yrotation Xrotation
                      JOINT LeftHandIndex3
                      {
                        OFFSET 3.662364 0.0 0.0
                        CHANNELS 3 Zrotation Yrotation Xrotation
                        JOINT LeftHandIndex4
                        {
                          OFFSET 2.329242 4e-06 -4e-06
                          CHANNELS 3 Zrotation Yrotation Xrotation
                          JOINT LeftHandIndexEnd
                          {
                            OFFSET 2.767823 1e-06 0.0
                            CHANNELS 3 Zrotation Yrotation Xrotation
                          }
                        }
                      }
                    }
                  }
                  JOINT LeftHandMiddle1
                  {
                    OFFSET 3.163612 0.945023 -0.406112
                    CHANNELS 3 Zrotation Yrotation Xrotation
                    JOINT LeftHandMiddle2
                    {
                      OFFSET 6.276789 3e-06 0.0
                      CHANNELS 3 Zrotation Yrotation Xrotation
                      JOINT LeftHandMiddle3
                      {
                        OFFSET 4.35652 -1e-06 4e-06
                        CHANNELS 3 Zrotation Yrotation Xrotation
                        JOINT LeftHandMiddle4
                        {
                          OFFSET 2.996877 0.0 8e-06
                          CHANNELS 3 Zrotation Yrotation Xrotation
                          JOINT LeftHandMiddleEnd
                          {
                            OFFSET 2.323256 3e-06 -4e-06
                            CHANNELS 3 Zrotation Yrotation Xrotation
                          }
                        }
                      }
                    }
                  }
                  JOINT LeftHandRing1
                  {
                    OFFSET 2.882606 -0.309162 0.107445
                    CHANNELS 3 Zrotation Yrotation Xrotation
                    JOINT LeftHandRing2
                    {
                      OFFSET 6.033198 0.0 4e-06
                      CHANNELS 3 Zrotation Yrotation Xrotation
                      JOINT LeftHandRing3
                      {
                        OFFSET 4.350578 3e-06 0.0
                        CHANNELS 3 Zrotation Yrotation Xrotation
                        JOINT LeftHandRing4
                        {
                          OFFSET 2.651321 2e-06 -7e-06
                          CHANNELS 3 Zrotation Yrotation Xrotation
                          JOINT LeftHandRingEnd
                          {
                            OFFSET 1.937663 1e-06 -4e-06
                            CHANNELS 3 Zrotation Yrotation Xrotation
                          }
                        }
                      }
                    }
                  }
                  JOINT LeftHandPinky1
                  {
                    OFFSET 2.865315 -1.525436 0.575687
                    CHANNELS 3 Zrotation Yrotation Xrotation
                    JOINT LeftHandPinky2
                    {
                      OFFSET 5.54936 1e-06 -8e-06
                      CHANNELS 3 Zrotation Yrotation Xrotation
                      JOINT LeftHandPinky3
                      {
                        OFFSET 3.070974 0.0 -4e-06
                        CHANNELS 3 Zrotation Yrotation Xrotation
                        JOINT LeftHandPinky4
                        {
                          OFFSET 1.549672 1e-06 0.0
                          CHANNELS 3 Zrotation Yrotation Xrotation
                          JOINT LeftHandPinkyEnd
                          {
                            OFFSET 1.952123 0.0 0.0
                            CHANNELS 3 Zrotation Yrotation Xrotation
                          }
                        }
                      }
                    }
                  }
                }
              }
            }
          }
          JOINT RightShoulder
          {
            OFFSET 23.161716 5.296122 -1.380114
            CHANNELS 3 Zrotation Yrotation Xrotation
            JOINT RightArm
            {
              OFFSET -16.027195 -2e-06 1.1e-05
              CHANNELS 3 Zrotation Yrotation Xrotation
              JOINT RightForeArm
              {
                OFFSET -28.736639 4e-06 2e-06
                CHANNELS 3 Zrotation Yrotation Xrotation
                JOINT RightHand
                {
                  OFFSET -27.133619 6e-06 0.0
                  CHANNELS 3 Zrotation Yrotation Xrotation
                  JOINT RightHandThumb1
                  {
                    OFFSET -2.274328 -3.351035 -0.83067
                    CHANNELS 3 Zrotation Yrotation Xrotation
                    JOINT RightHandThumb2
                    {
                      OFFSET -4.703594 -3e-06 2e-06
                      CHANNELS 3 Zrotation Yrotation Xrotation
                      JOINT RightHandThumb3
                      {
                        OFFSET -2.794935 -4e-06 -3e-06
                        CHANNELS 3 Zrotation Yrotation Xrotation
                        JOINT RightHandThumbEnd
                        {
                          OFFSET -3.183852 4e-06 1e-06
                          CHANNELS 3 Zrotation Yrotation Xrotation
                        }
                      }
                    }
                  }
                  JOINT RightHandIndex1
                  {
                    OFFSET -3.253496 -2.33755 -0.127667
                    CHANNELS 3 Zrotation Yrotation Xrotation
                    JOINT RightHandIndex2
                    {
                      OFFSET -6.344434 0.0 0.0
                      CHANNELS 3 Zrotation Yrotation Xrotation
                      JOINT RightHandIndex3
                      {
                        OFFSET -3.654871 0.0 -8e-06
                        CHANNELS 3 Zrotation Yrotation Xrotation
                        JOINT RightHandIndex4
                        {
                          OFFSET -2.327586 -1e-06 0.0
                          CHANNELS 3 Zrotation Yrotation Xrotation
                          JOINT RightHandIndexEnd
                          {
                            OFFSET -2.770001 3e-06 8e-06
                            CHANNELS 3 Zrotation Yrotation Xrotation
                          }
                        }
                      }
                    }
                  }
                  JOINT RightHandMiddle1
                  {
                    OFFSET -3.168223 -0.944764 0.411762
                    CHANNELS 3 Zrotation Yrotation Xrotation
                    JOINT RightHandMiddle2
                    {
                      OFFSET -6.266691 -1e-06 -4e-06
                      CHANNELS 3 Zrotation Yrotation Xrotation
                      JOINT RightHandMiddle3
                      {
                        OFFSET -4.348901 0.0 0.0
                        CHANNELS 3 Zrotation Yrotation Xrotation
                        JOINT RightHandMiddle4
                        {
                          OFFSET -3.00024 2e-06 -4e-06
                          CHANNELS 3 Zrotation Yrotation Xrotation
                          JOINT RightHandMiddleEnd
                          {
                            OFFSET -2.321477 -4e-06 -4e-06
                            CHANNELS 3 Zrotation Yrotation Xrotation
                          }
                        }
                      }
                    }
                  }
                  JOINT RightHandRing1
                  {
                    OFFSET -2.885654 0.293261 -0.119232
                    CHANNELS 3 Zrotation Yrotation Xrotation
                    JOINT RightHandRing2
                    {
                      OFFSET -6.032835 -1e-06 -4e-06
                      CHANNELS 3 Zrotation Yrotation Xrotation
                      JOINT RightHandRing3
                      {
                        OFFSET -4.33881 0.0 -4e-06
                        CHANNELS 3 Zrotation Yrotation Xrotation
                        JOINT RightHandRing4
                        {
                          OFFSET -2.654903 -4e-06 -4e-06
                          CHANNELS 3 Zrotation Yrotation Xrotation
                          JOINT RightHandRingEnd
                          {
                            OFFSET -1.935122 0.0 4e-06
                            CHANNELS 3 Zrotation Yrotation Xrotation
                          }
                        }
                      }
                    }
                  }
                  JOINT RightHandPinky1
                  {
                    OFFSET -2.866241 1.503904 -0.60527
                    CHANNELS 3 Zrotation Yrotation Xrotation
                    JOINT RightHandPinky2
                    {
                      OFFSET -5.553177 -2e-06 0.0
                      CHANNELS 3 Zrotation Yrotation Xrotation
                      JOINT RightHandPinky3
                      {
                        OFFSET -3.062664 -1e-06 -4e-06
                        CHANNELS 3 Zrotation Yrotation Xrotation
                        JOINT RightHandPinky4
                        {
                          OFFSET -1.546529 2e-06 4e-06
                          CHANNELS 3 Zrotation Yrotation Xrotation
                          JOINT RightHandPinkyEnd
                          {
                            OFFSET -1.952341 0.0 -4e-06
                            CHANNELS 3 Zrotation Yrotation Xrotation
                          }
                        }
                      }
                    }
                  }
                }
              }
            }
          }
        }
      }
    }
    JOINT LeftLeg
    {
      OFFSET -8.443107 2.567604 10.043214
      CHANNELS 3 Zrotation Yrotation Xrotation
      JOINT LeftShin
      {
        OFFSET 43.229198 1e-06 -1e-06
        CHANNELS 3 Zrotation Yrotation Xrotation
        JOINT LeftFoot
        {
          OFFSET 42.298611 1e-06 1e-06
          CHANNELS 3 Zrotation Yrotation Xrotation
          JOINT LeftToeBase
          {
            OFFSET 14.165858 1e-06 0.0
            CHANNELS 3 Zrotation Yrotation Xrotation
            JOINT LeftToeEnd
            {
              OFFSET 6.7141 -0.234461 0.0
              CHANNELS 3 Zrotation Yrotation Xrotation
            }
          }
        }
      }
    }
    JOINT RightLeg
    {
      OFFSET -8.303923 2.592729 -10.047278
      CHANNELS 3 Zrotation Yrotation Xrotation
      JOINT RightShin
      {
        OFFSET -43.369682 0.0 1e-06
        CHANNELS 3 Zrotation Yrotation Xrotation
        JOINT RightFoot
        {
          OFFSET -42.260784 4e-06 2e-06
          CHANNELS 3 Zrotation Yrotation Xrotation
          JOINT RightToeBase
          {
            OFFSET -14.222245 -2e-06 -1e-06
            CHANNELS 3 Zrotation Yrotation Xrotation
            JOINT RightToeEnd
            {
              OFFSET -6.660062 0.232574 -2e-06
              CHANNELS 3 Zrotation Yrotation Xrotation
            }
          }
        }
      }
    }
  }
}
MOTION
Frames: 4
Frame Time: 0.03333333333333333
0.0 0.0 0.0 0.0 -0.0 0.0 -0.145199 48.88063 6.408857 94.556725 -54.37471 88.30571 16.532207 0.724077 -0.117629 -4.55493 -0.179158 -0.708855 18.435492 -0.045887 -3.493277 27.863466 -4.457571 2.812956 -2.58864 0.078206 -0.702573 -18.05731 -1.426974 -2.005515 6e-06 -0.0 -0.0 -0.266814 0.120125 0.014371 -0.230344 0.300633 0.022875 -0.25858 -0.055113 0.009795 -13.144348 -76.789421 17.593811 82.273392 -0.62632 -21.957874 7.871936 -1.182148 -0.054213 -9.233614 81.590477 -2.714125 17.636633 -26.322737 52.411209 -19.466663 -14.395597 29.410395 -0.0 -8.774821 -2e-06 15.362204 -17.586008 6.585136 -0.609776 -1.795654 -3.889329 -4.807088 -11.046811 -2.937851 4e-06 -20.976021 -0.0 -5.01997 -25.03356 -4.031881 6e-06 -0.0 1e-06 -10.634534 -5.686972 -3.565589 10.573275 -17.922953 -3.113901 3e-06 -13.821213 1e-06 -0.501776 -31.181507 -4.027016 -10.811358 -58.628384 6.758636 -13.982714 -7.150199 -2.875043 13.77273 -8.401493 -3.218243 0.347733 -34.211559 0.771655 -0.963029 -17.733376 2.62102 0.0 -1e-06 0.0 -17.346418 -20.095222 -4.201784 21.757555 -1.638374 3.866428 1e-06 -6.338824 0.0 -1.697589 -22.591749 -6.194007 -1e-06 -8e-06 -2e-06 169.49295 -75.378151 15.721059 83.485733 -3.406447 -33.489319 7.33597 -0.414081 -0.043163 54.351875 69.783401 57.269699 22.182121 -20.3759 49.933334 -16.701813 -16.743528 28.476532 -3e-06 -12.6906 -1e-06 16.608429 -17.33028 2.37711 -0.10592 -1.513856 -4.275881 -5.039042 -5.612871 -2.953557 4e-06 -11.020523 -2e-06 -6.111298 -15.89533 -3.840471 1e-06 -1e-06 1e-06 -10.283373 -5.680288 -4.34184 11.028295 -11.302406 -2.372633 -1.384269 -14.238582 -6.320122 -0.625438 -26.924187 -3.8276 -4.327353 -49.262043 -4.030283 -13.708526 -7.363476 -3.720941 18.14115 -14.052739 -3.242673 6e-06 -18.78727 -1e-06 -0.429712 -8.456043 2.555505 0.0 0.0 0.0 -15.923536 -20.094482 -5.473588 30.419214 -7.190831 1.735927 2e-06 -8.162925 -0.0 -1.861903 -22.861471 -6.167941 -0.0 -3e-06 -1e-06 129.011276 -1.337477 6.137123 100.162079 -0.075529 0.310543 -49.72871 28.514078 -10.472456 -6.109427 0.988612 2.415445 -0.999999 1e-06 -1e-06 -53.907658 -7.033321 1.712233 104.901649 -1.167219 -0.183624 -47.417046 -0.450338 -10.286395 -3.920957 0.449825 2.080779 -1.000002 -0.0 -0.0 
0.0 0.0 0.0 0.0 -0.0 0.0 0.099892 48.967239 6.461884 94.265015 -54.202984 88.47139 16.529844 0.880577 -0.056998 -4.641388 -0.101779 -0.622657 18.622555 0.013897 -3.324598 27.939375 -4.674613 2.605845 -2.602969 0.125206 -0.695935 -17.952408 -1.47935 -2.083585 6e-06 0.0 -0.0 -0.269247 0.07215 0.01049 -0.214609 0.24943 0.012892 -0.244926 -0.096644 0.008847 -12.055392 -77.006454 16.747816 82.43235 -0.486285 -22.670443 7.540527 -1.157609 -0.046711 -2.35649 81.312645 3.587492 17.636631 -26.322729 52.411205 -19.466654 -14.395596 29.410389 0.0 -8.774821 -3e-06 15.399932 -17.715324 6.523643 -0.609776 -1.795654 -3.889327 -4.80709 -11.046808 -2.937851 3e-06 -20.976021 0.0 -5.01997 -25.033556 -4.031883 6e-06 0.0 1e-06 -10.634535 -5.686971 -3.565589 10.573275 -17.922947 -3.113899 2e-06 -13.821206 1e-06 -0.501777 -31.181498 -4.027016 -10.806631 -58.852825 6.762371 -13.982714 -7.150197 -2.875043 13.772729 -8.401491 -3.21824 0.347733 -34.211544 0.771655 -0.963029 -17.733368 2.621021 0.0 -1e-06 -0.0 -17.346416 -20.095215 -4.201784 21.757557 -1.638376 3.86643 1e-06 -6.338823 1e-06 -1.697589 -22.591742 -6.194007 -0.0 -5e-06 -3e-06 169.84256 -75.286644 15.631475 83.355698 -3.310663 -33.31115 7.008957 -0.285356 -0.035525 54.26606 69.539497 57.073597 22.182123 -20.375896 49.933323 -16.701811 -16.743526 28.47653 -0.0 -12.690601 -2e-06 16.451782 -17.244911 2.462258 -0.10592 -1.513857 -4.275881 -5.039042 -5.612871 -2.953557 4e-06 -11.020523 -2e-06 -6.111297 -15.895328 -3.840472 -1e-06 -1e-06 0.0 -10.283371 -5.680288 -4.34184 11.028293 -11.302406 -2.372632 -1.384269 -14.238579 -6.320122 -0.625439 -26.924187 -3.8276 -4.350274 -49.357456 -3.906688 -13.708526 -7.363477 -3.720941 18.141148 -14.052739 -3.242672 6e-06 -18.78727 -1e-06 -0.429712 -8.456043 2.555504 -0.0 -1e-06 -0.0 -15.923538 -20.094482 -5.473588 30.41921 -7.190827 1.73593 3e-06 -8.162925 -0.0 -1.861902 -22.861469 -6.167942 -1e-06 -3e-06 -1e-06 129.249359 -1.179919 6.138166 100.088249 -0.118922 0.298546 -49.786095 28.316835 -10.298157 -5.940126 1.019852 2.390185 -0.999999 -0.0 0.0 -53.65094 -7.122944 1.655462 104.634644 -1.218115 -0.185321 -47.145092 -0.417558 -10.237708 -3.861444 0.42321 2.095534 -1.000006 0.0 -0.0 
0.0 0.0 0.0 0.0 -0.0 0.0 0.303688 48.982403 6.431678 94.132835 -54.07761 88.526825 16.483929 0.954367 -0.000743 -4.695668 -0.001294 -0.527345 18.7857 0.028835 -3.215027 28.037052 -4.790603 2.453047 -2.605159 0.119565 -0.692604 -17.972574 -1.613999 -2.132241 6e-06 0.0 -0.0 -0.260208 0.045261 0.010374 -0.232276 0.213428 0.00231 -0.253176 -0.11281 0.014866 -10.933702 -76.9841 15.863077 82.516624 -0.328032 -23.034887 7.382195 -1.122559 -0.040606 0.31846 80.920067 5.80904 17.636629 -26.322733 52.411201 -19.466663 -14.395597 29.410395 -2e-06 -8.774819 -2e-06 15.430478 -17.78841 6.461183 -0.609776 -1.795654 -3.889328 -4.80709 -11.046811 -2.93785 4e-06 -20.976021 0.0 -5.01997 -25.03356 -4.03188 6e-06 -1e-06 -1e-06 -10.634535 -5.686971 -3.565588 10.573274 -17.922951 -3.113901 3e-06 -13.821212 1e-06 -0.501778 -31.181507 -4.027016 -10.747601 -58.939083 6.730558 -13.982715 -7.150198 -2.875043 13.772731 -8.401495 -3.218241 0.347734 -34.211555 0.771655 -0.963029 -17.73337 2.62102 0.0 0.0 -1e-06 -17.346418 -20.095221 -4.201783 21.757559 -1.638374 3.866428 1e-06 -6.338825 1e-06 -1.697589 -22.591745 -6.194007 -0.0 -4e-06 -3e-06 170.362183 -75.225639 15.385573 83.073761 -3.177666 -33.105122 6.829843 -0.226006 -0.036893 54.816799 69.489456 57.790367 22.182106 -20.375891 49.933308 -16.701811 -16.743528 28.476528 -2e-06 -12.690598 -0.0 16.419947 -17.124769 2.497693 -0.105919 -1.513856 -4.275881 -5.039039 -5.612871 -2.953556 3e-06 -11.020525 -2e-06 -6.111298 -15.89533 -3.84047 0.0 -3e-06 0.0 -10.283369 -5.680289 -4.341837 11.028292 -11.302404 -2.372633 -1.384269 -14.238581 -6.320119 -0.62544 -26.924191 -3.827601 -4.328104 -49.393578 -3.85101 -13.708522 -7.363477 -3.720938 18.14115 -14.052736 -3.242675 6e-06 -18.78727 -2e-06 -0.429712 -8.456043 2.555503 -0.0 -1e-06 0.0 -15.923532 -20.094482 -5.473583 30.419207 -7.190824 1.735924 3e-06 -8.162921 -1e-06 -1.861903 -22.861469 -6.167942 1e-06 -3e-06 -1e-06 129.35791 -1.007537 6.109999 100.184441 -0.135559 0.299333 -49.983395 28.130434 -10.157082 -5.939279 1.027094 2.367478 -1.000001 -1e-06 -1e-06 -53.546101 -7.217228 1.723464 104.600098 -1.242659 -0.167035 -47.061768 -0.13904 -10.142525 -3.841605 0.406152 2.111392 -1.000005 0.0 0.0 
0.0 0.0 0.0 0.0 -0.0 0.0 0.446129 48.955074 6.369057 94.052757 -54.082623 88.630882 16.408539 0.99983 0.03532 -4.734569 0.0538 -0.469377 18.828938 0.094024 -3.19013 28.125572 -4.85781 2.358635 -2.593435 0.121451 -0.705477 -18.019596 -1.713934 -2.117677 6e-06 -0.0 -0.0 -0.255568 0.029056 0.009587 -0.276209 0.193861 -0.011394 -0.283533 -0.126286 0.024248 -10.276796 -76.901253 15.343002 82.579956 -0.256841 -23.243776 7.329854 -1.132008 -0.04281 1.426767 80.687515 6.949077 17.636623 -26.322737 52.411213 -19.466665 -14.395602 29.410398 -2e-06 -8.774822 -1e-06 15.397842 -17.774317 6.452878 -0.609776 -1.795653 -3.889329 -4.807091 -11.046812 -2.937851 4e-06 -20.976021 -2e-06 -5.019969 -25.03356 -4.031883 5e-06 -1e-06 1e-06 -10.634536 -5.686972 -3.565588 10.573277 -17.922955 -3.113903 3e-06 -13.821209 0.0 -0.501777 -31.181505 -4.027017 -10.62099 -58.947948 6.61187 -13.982717 -7.150199 -2.875042 13.772733 -8.401493 -3.218243 0.347735 -34.211555 0.771654 -0.963029 -17.73337 2.62102 0.0 0.0 -0.0 -17.346422 -20.095221 -4.201784 21.757561 -1.638376 3.866427 1e-06 -6.338825 1e-06 -1.697589 -22.591743 -6.194008 -1e-06 -7e-06 -3e-06 170.523041 -75.173729 15.347078 82.828178 -3.20583 -32.889942 6.870313 -0.217163 -0.041633 55.526428 69.542442 58.855938 22.182106 -20.375898 49.933327 -16.701815 -16.743528 28.476536 -3e-06 -12.6906 1e-06 16.439266 -17.041122 2.541097 -0.105919 -1.513856 -4.275882 -5.03904 -5.612871 -2.953556 4e-06 -11.020525 -2e-06 -6.111297 -15.895334 -3.84047 0.0 -1e-06 0.0 -10.283369 -5.680287 -4.341839 11.028294 -11.302406 -2.372634 -1.384268 -14.238583 -6.320122 -0.625438 -26.924194 -3.827603 -4.309573 -49.50375 -3.751182 -13.708524 -7.363477 -3.720938 18.14115 -14.052739 -3.242676 6e-06 -18.78727 -2e-06 -0.429712 -8.456045 2.555504 -0.0 -0.0 -0.0 -15.923534 -20.094482 -5.473585 30.419218 -7.190827 1.735924 3e-06 -8.162924 -1e-06 -1.861902 -22.861479 -6.167943 -1e-06 -2e-06 -1e-06 129.281555 -0.833776 6.155 100.400108 -0.125813 0.310875 -50.470764 28.023039 -10.118732 -6.09361 1.022179 2.351587 -0.999999 -1e-06 -0.0 -53.599529 -7.360223 1.788764 104.697876 -1.209089 -0.148417 -47.181396 0.088357 -10.193413 -3.903423 0.40233 2.125408 -1.000005 0.0 0.0 
